
        <svg xmlns="http://www.w3.org/2000/svg" xmlns:xlink="http://www.w3.org/1999/xlink" version="1.1" width="3191.968776643145" 
        height="3191.998121903347" viewBox="0 0 3191.968776643145 3191.998121903347">
			<rect fill="#ffffff" width="3191.968776643145" height="3191.998121903347"/>
			<g transform="scale(9.599906095167352) translate(10, 10)">
				<defs id="SvgjsDefs1437"></defs><g id="SvgjsG1438" featureKey="rootContainer" transform="matrix(1.5292539637583238,0,0,1.5292539637583238,0,0)" fill="#323232"><path xmlns="http://www.w3.org/2000/svg" d="M102.174 199.588c53.8 0 97.413-43.613 97.413-97.413S155.974 4.762 102.174 4.762 4.761 48.375 4.761 102.175s43.614 97.413 97.413 97.413zm0-189.826c50.957 0 92.413 41.457 92.413 92.413s-41.456 92.413-92.413 92.413c-50.957 0-92.413-41.457-92.413-92.413S51.218 9.762 102.174 9.762z"></path><path xmlns="http://www.w3.org/2000/svg" d="M102.174 191.585c49.38 0 89.41-40.03 89.41-89.41s-40.03-89.41-89.41-89.41c-49.38 0-89.41 40.03-89.41 89.41s40.03 89.41 89.41 89.41zm0-176.82c48.198 0 87.41 39.212 87.41 87.41s-39.212 87.41-87.41 87.41c-48.198 0-87.41-39.212-87.41-87.41s39.212-87.41 87.41-87.41z"></path><path xmlns="http://www.w3.org/2000/svg" d="M102.174 204.35c56.339 0 102.174-45.835 102.174-102.175S158.513 0 102.174 0C45.835 0 0 45.835 0 102.175S45.835 204.35 102.174 204.35zm0-202.35c55.236 0 100.174 44.938 100.174 100.175S157.411 202.35 102.174 202.35C46.938 202.35 2 157.411 2 102.175S46.938 2 102.174 2z"></path></g><g id="SvgjsG1439" featureKey="symbolFeature-0" transform="matrix(0.1507479585447203,0,0,0.1507479585447203,117.3237553831802,73.97995052131587)" fill="#0d7377"><g xmlns="http://www.w3.org/2000/svg"><g><g><g><g><path d="M256,343.954c-2.21,0-3.998-1.788-3.998-3.998s1.788-3.997,3.998-3.997c90.382,0,163.914-73.533,163.914-163.915       C419.914,81.661,346.383,8.129,256,8.129c-90.383,0-163.915,73.532-163.915,163.915c0,75.815,51.364,141.302,124.908,159.253       c2.143,0.523,3.459,2.686,2.936,4.825c-0.523,2.147-2.702,3.444-4.833,2.937C137.96,320.232,84.089,251.557,84.089,172.044       C84.089,77.253,161.209,0.133,256,0.133c94.794,0,171.91,77.12,171.91,171.911C427.91,266.838,350.795,343.954,256,343.954z"></path></g></g></g><g><g><g><g><path d="M301.352,289.826c-0.906,0-1.828-0.039-2.779-0.125c-8.691-0.711-14.828-7.785-18.225-21.028        c-2.172-8.894-2.875-17.908-3.553-26.623c-0.75-9.593-1.453-18.659-3.928-27.646c-4.311-15.504-15.379-16.304-33.089-16.327        l-4.931-0.023c-23.593-0.25-38.781-15.27-39.628-39.198c-0.792-21.161,5.353-37.562,18.26-48.737        c12.841-11.107,29.239-13.54,33.908-12.689l1.386,0.246c14.828,2.644,29.23,5.47,34.189,8.227        c9.939,5.493,19.982,2.651,25.564-1.46c3.553-2.62,4.412-4.982,4.303-5.501c-3.357-4.712-42.088-14.766-59.692-16.027        c-1.433-0.098-3.932,0.359-6.364,0.793c-6.239,1.12-14.012,2.514-18.451-2.386c-4.83-5.368-2.112-13.118,2.042-18.584        c13.7-18.073,33.889-26.068,53.418-33.795c6.98-2.769,14.211-5.626,20.91-8.886c1.914-0.933,5.756-3.463,6.551-6.305        c0.602-2.124,2.836-3.365,4.928-2.772c2.123,0.597,3.373,2.803,2.771,4.927c-1.834,6.539-8.689,10.33-10.744,11.338        c-6.98,3.393-14.344,6.309-21.473,9.132c-19.357,7.66-37.641,14.898-49.994,31.194c-1.847,2.429-4.025,6.669-2.476,8.395        c1.457,1.612,7.262,0.558,11.104-0.129c3.03-0.551,5.864-1.054,8.332-0.898c7.68,0.551,64.579,10.046,66.977,22.434        c0.906,4.357-1.859,9.429-7.402,13.508c-7.473,5.517-20.912,9.351-34.186,2.015c-4.482-2.491-24.975-6.145-31.71-7.348        l-1.413-0.25c-1.589-0.25-15.933,0.719-27.79,11.35c-10.612,9.511-15.645,23.613-14.961,41.92        c0.695,19.521,12.556,31.288,31.733,31.491l4.845,0.023c16.234,0.02,34.634,0.043,40.781,22.191        c2.686,9.737,3.451,19.607,4.199,29.157c0.688,8.784,1.328,17.08,3.342,25.299c2.477,9.675,6.123,14.594,11.145,15.008        c11.891,1.078,20.035-7.113,27.922-16.327c2.195-2.522,4.537-4.915,6.879-7.309c4.873-4.978,9.48-9.679,12.572-15.332        c3.514-6.415,4.857-13.524,6.277-21.048c1.547-8.214,3.139-16.71,7.762-24.612l1.758-3.033        c14.18-24.397,18.193-34.299,18.67-38.105c-22.777,1.277-35.982-7.43-40.854-16.175c-2.703-4.857-2.875-9.733-0.453-13.048        c4.973-6.755,15.516-3.939,25.705-1.21c6.73,1.8,15.109,4.037,18.053,2.061c0.289-0.195,1.055-0.706,1.32-2.799        c0.805-6.719,19.855-17.155,26.979-18.084c2.186-0.312,4.199,1.257,4.48,3.443c0.297,2.19-1.248,4.197-3.436,4.482        c-6.012,0.785-18.85,9.312-20.285,11.83c-0.281,3.115-1.898,5.95-4.592,7.766c-5.967,4.002-15.008,1.581-24.582-0.977        c-6.168-1.651-15.475-4.13-17.201-1.78c-0.211,0.293-0.398,1.917,1,4.428c3.607,6.473,14.859,13.485,34.801,11.99        c2.57-0.195,4.748,0.824,5.99,2.807c3.443,5.478-1.273,17.437-18.686,47.394l-1.75,3.021        c-3.936,6.731-5.34,14.188-6.824,22.083c-1.467,7.808-2.99,15.886-7.121,23.41c-3.623,6.618-8.832,11.938-13.867,17.085        c-2.234,2.276-4.467,4.557-6.545,6.938C325.23,279.979,315.531,289.826,301.352,289.826z"></path></g></g></g><g><g><g><path d="M127.043,283.688c-0.058,0-0.113,0-0.164-0.008c-1.07-0.086-2.147-0.64-2.831-1.468        c-1.413-1.694-1.183-4.217,0.516-5.63c0.562-0.461,1.214-0.749,1.886-0.866c2.783-1.523,13.017-9.23,14.414-10.433        c5.606-4.813,9.089-9.761,10.654-15.141c3.366-11.393-0.948-25.885-12.817-43.091c-2.979-4.342-6.208-8.585-9.421-12.821        c-2.452-3.229-4.899-6.45-7.23-9.698c-1.058-1.472-2.749-4.018-4.841-7.18c-6.911-10.417-21.282-32.097-27.615-35.517        c-1.944-1.047-2.67-3.475-1.62-5.416c1.05-1.94,3.479-2.674,5.415-1.62c7.473,4.033,19.154,21.051,30.484,38.136        c2.022,3.049,3.65,5.509,4.673,6.93c2.288,3.19,4.693,6.356,7.098,9.526c3.295,4.337,6.598,8.691,9.644,13.13        c13.301,19.283,17.982,36.063,13.902,49.869c-2.007,6.902-6.297,13.103-13.11,18.951        C145.944,271.461,131.28,283.688,127.043,283.688z"></path></g></g></g></g></g><g><g><g><g><g><path d="M311.971,399.925H200.029c-2.209,0-3.998-1.788-3.998-3.997c0-2.21,1.788-3.998,3.998-3.998h111.941        c2.211,0,3.998,1.788,3.998,3.998C315.969,398.137,314.182,399.925,311.971,399.925z"></path></g></g></g><g><g><g><path d="M272.797,495.875h-33.592c-2.21,0-3.998-1.788-3.998-3.998c0-2.209,1.788-3.998,3.998-3.998h33.592        c2.209,0,3.998,1.789,3.998,3.998C276.795,494.087,275.006,495.875,272.797,495.875z"></path></g></g></g><g><g><g><path d="M200.029,511.867c-33.069,0-59.969-26.9-59.969-59.969c0-33.069,26.9-59.969,59.969-59.969        c2.209,0,3.998,1.788,3.998,3.998c0,2.209-1.789,3.997-3.998,3.997c-28.657,0-51.973,23.316-51.973,51.974        c0,28.656,23.316,51.973,51.973,51.973c13.684,0,26.603-5.271,36.375-14.852c1.581-1.53,4.111-1.53,5.653,0.062        c1.546,1.577,1.522,4.107-0.055,5.653C230.728,505.784,215.822,511.867,200.029,511.867z"></path></g></g></g><g><g><g><path d="M311.971,511.867c-15.789,0-30.703-6.083-41.979-17.132c-1.576-1.546-1.592-4.076-0.047-5.653        c1.539-1.601,4.068-1.601,5.654-0.062c9.768,9.581,22.691,14.852,36.371,14.852c28.658,0,51.973-23.316,51.973-51.973        c0-28.657-23.314-51.974-51.973-51.974c-2.209,0-3.998-1.788-3.998-3.997c0-2.21,1.789-3.998,3.998-3.998        c33.068,0,59.969,26.899,59.969,59.969C371.939,484.967,345.039,511.867,311.971,511.867z"></path></g></g></g><g><g><g><path d="M200.029,479.884c-15.429,0-27.985-12.556-27.985-27.985s12.556-27.986,27.985-27.986s27.985,12.557,27.985,27.986        S215.458,479.884,200.029,479.884z M200.029,431.908c-11.022,0-19.99,8.965-19.99,19.99s8.968,19.989,19.99,19.989        s19.99-8.964,19.99-19.989S211.051,431.908,200.029,431.908z"></path></g></g></g><g><g><g><path d="M200.029,463.892c-2.209,0-3.998-1.788-3.998-3.997v-15.992c0-2.21,1.788-3.998,3.998-3.998s3.998,1.788,3.998,3.998        v15.992C204.027,462.104,202.239,463.892,200.029,463.892z"></path></g></g></g><g><g><g><path d="M208.025,455.896h-16.397c-2.21,0-3.998-1.789-3.998-3.998c0-2.21,1.788-3.998,3.998-3.998h16.397        c2.21,0,3.998,1.788,3.998,3.998C212.023,454.107,210.235,455.896,208.025,455.896z"></path></g></g></g><g><g><g><path d="M292.684,452.062c-5.559,0-10.354-3.787-11.65-9.215c-0.748-3.115-0.234-6.332,1.438-9.065        c1.68-2.725,4.326-4.638,7.434-5.388c6.371-1.522,12.939,2.546,14.461,8.879c0.75,3.115,0.234,6.34-1.443,9.073        c-1.68,2.725-4.318,4.638-7.441,5.38C294.574,451.945,293.629,452.062,292.684,452.062z M292.699,436.062        c-0.312,0-0.625,0.039-0.936,0.109c-1.031,0.25-1.922,0.891-2.477,1.796s-0.727,1.983-0.477,3.022        c0.508,2.115,2.672,3.506,4.811,2.959c1.047-0.25,1.938-0.883,2.49-1.788c0.555-0.914,0.727-1.983,0.477-3.03        C296.15,437.328,294.559,436.062,292.699,436.062z"></path></g></g></g><g><g><g><path d="M323.793,444.629c-5.576,0-10.361-3.795-11.65-9.223c-0.75-3.107-0.234-6.324,1.438-9.058        c1.678-2.725,4.326-4.638,7.434-5.388c6.363-1.522,12.945,2.538,14.461,8.879c1.529,6.426-2.451,12.906-8.871,14.453        C325.682,444.512,324.73,444.629,323.793,444.629z M323.824,428.629c-0.312,0-0.633,0.031-0.938,0.109        c-1.045,0.25-1.936,0.891-2.49,1.796s-0.727,1.983-0.477,3.022c0.5,2.115,2.686,3.498,4.811,2.959        c2.146-0.516,3.482-2.679,2.967-4.818C327.26,429.895,325.668,428.629,323.824,428.629z"></path></g></g></g><g><g><g><path d="M300.117,483.171c-5.559,0-10.354-3.787-11.65-9.214c-1.529-6.427,2.453-12.907,8.871-14.453        c6.387-1.523,12.955,2.545,14.461,8.886c0.75,3.107,0.234,6.325-1.436,9.058c-1.68,2.726-4.326,4.639-7.434,5.388        C302.008,483.054,301.062,483.171,300.117,483.171z M300.148,467.164c-0.312,0-0.633,0.039-0.936,0.117        c-2.148,0.515-3.484,2.678-2.969,4.817c0.508,2.116,2.672,3.49,4.811,2.959c1.047-0.249,1.938-0.89,2.49-1.796        c0.555-0.905,0.727-1.983,0.477-3.021C303.592,468.429,302,467.164,300.148,467.164z"></path></g></g></g><g><g><g><path d="M331.242,475.729c-5.568,0-10.369-3.787-11.666-9.206c-0.75-3.115-0.234-6.341,1.445-9.073        c1.678-2.726,4.318-4.639,7.441-5.38c6.301-1.531,12.922,2.529,14.445,8.878c1.547,6.427-2.436,12.907-8.871,14.453        C333.117,475.62,332.18,475.729,331.242,475.729z M331.258,459.73c-0.312,0-0.633,0.039-0.938,0.117        c-1.045,0.249-1.936,0.882-2.49,1.787c-0.555,0.914-0.727,1.984-0.477,3.03c0.516,2.108,2.701,3.459,4.826,2.959        c2.139-0.515,3.467-2.678,2.951-4.817C334.693,460.995,333.102,459.73,331.258,459.73z"></path></g></g></g><g><g><g><path d="M290.842,436.281c-1.812,0-3.451-1.233-3.889-3.068c-0.516-2.147,0.812-4.303,2.959-4.818l31.109-7.434        c2.162-0.523,4.311,0.812,4.816,2.959c0.516,2.148-0.811,4.303-2.959,4.818l-31.107,7.434        C291.459,436.25,291.146,436.281,290.842,436.281z"></path></g></g></g><g><g><g><path d="M294.559,451.836c-1.812,0-3.451-1.234-3.889-3.069c-0.516-2.147,0.812-4.302,2.959-4.817l31.109-7.434        c2.162-0.516,4.303,0.812,4.816,2.959c0.516,2.147-0.811,4.303-2.959,4.818l-31.107,7.434        C295.176,451.805,294.863,451.836,294.559,451.836z"></path></g></g></g><g><g><g><path d="M298.275,467.391c-1.812,0-3.451-1.234-3.889-3.069c-0.516-2.147,0.812-4.303,2.959-4.817l31.109-7.434        c2.146-0.531,4.303,0.812,4.816,2.959c0.516,2.147-0.811,4.303-2.959,4.818l-31.107,7.434        C298.893,467.359,298.58,467.391,298.275,467.391z"></path></g></g></g><g><g><g><path d="M301.992,482.944c-1.812,0-3.451-1.233-3.889-3.068c-0.516-2.147,0.812-4.303,2.959-4.818l31.109-7.434        c2.154-0.522,4.303,0.812,4.816,2.96c0.516,2.146-0.811,4.303-2.959,4.817l-31.107,7.434        C302.609,482.913,302.297,482.944,301.992,482.944z"></path></g></g></g><g><g><g><path d="M248.004,471.888h-7.996c-2.209,0-3.998-1.788-3.998-3.998s1.789-3.998,3.998-3.998h7.996        c2.21,0,3.998,1.788,3.998,3.998S250.214,471.888,248.004,471.888z"></path></g></g></g><g><g><g><path d="M271.992,471.888h-7.996c-2.209,0-3.998-1.788-3.998-3.998s1.789-3.998,3.998-3.998h7.996        c2.209,0,3.998,1.788,3.998,3.998S274.201,471.888,271.992,471.888z"></path></g></g></g></g><g><g><g><path d="M256,391.93c-2.21,0-3.998-1.789-3.998-3.998c0-6.614-5.38-11.994-11.994-11.994c-2.209,0-3.998-1.788-3.998-3.998       c0-2.209,1.789-3.998,3.998-3.998c11.021,0,19.99,8.965,19.99,19.99C259.998,390.141,258.209,391.93,256,391.93z"></path></g></g></g><g><g><g><path d="M240.008,375.938c-11.021,0-19.989-8.964-19.989-19.989s8.968-19.989,19.989-19.989c2.21,0,3.998,1.787,3.998,3.997       s-1.788,3.998-3.998,3.998c-6.613,0-11.994,5.38-11.994,11.994c0,6.613,5.38,11.993,11.994,11.993       c2.21,0,3.998,1.789,3.998,3.998C244.006,374.149,242.218,375.938,240.008,375.938z"></path></g></g></g><g><g><g><path d="M256,343.954h-15.977c-2.209,0-3.998-1.788-3.998-3.998s1.789-3.997,3.998-3.997H256c2.208,0,3.998,1.787,3.998,3.997       S258.209,343.954,256,343.954z"></path></g></g></g></g></g></g><g id="SvgjsG1440" featureKey="nameFeature-0" transform="matrix(1.036139671425337,0,0,1.036139671425337,55.99498321427171,149.86275109817905)" fill="#323232"><path d="M15.88 32.480000000000004 c0.32 2 -0.4 8.84 1.36 9.32 c-1 0 -4.4 0.12 -5 -2.2 c-1.08 0.48 -2.2 0.6 -3.32 0.6 c-11.84 0 -11.88 -19.2 -0.16 -19.76 c1.04 -0.04 2.12 0.12 3.2 0.48 c1.56 0.48 2.32 0.64 3.48 -0.04 l-2.72 6.36 c-0.08 -1.88 -1.72 -2.6 -3.84 -2.52 c-6.24 0.28 -6.16 11.28 0.12 11.36 c3.72 0.08 3.52 -5.2 0.36 -5.8 c4.96 -1 6.2 0.16 6.52 2.2 z M29.221 23.68 l-1.8 8 c1.4 0.36 2.6 0.76 3.6 0.88 z M26.501 35.72 l-0.4 1.84 c-0.28 1.2 0.36 2.24 1.4 2.44 l-8.28 0 c1.12 -0.2 2.28 -1.4 2.48 -2.4 l0.52 -2.28 c-0.64 0.04 -1.2 0.24 -1.56 0.6 c-0.4 -2.28 -0.12 -4.48 2.52 -4.8 l1.8 -8 c0.28 -1.12 0.12 -2.16 -0.88 -2.36 l10.36 0 c-1 0.2 -1.2 1.24 -0.96 2.36 c0.96 4.84 1.92 9.68 2.88 14.48 c0.2 1 1.36 2.2 2.44 2.4 l-8.28 0 c1.04 -0.2 1.68 -1.24 1.44 -2.44 l-0.16 -0.96 c-1.2 0.04 -3.24 -0.48 -5.32 -0.88 z M55.002 20.76 l9 0 c-1.08 0.2 -2.32 1.24 -2.32 2.36 l0 14.48 c0 1.16 1.24 2.2 2.32 2.4 l-9 0 c1.08 -0.2 2.32 -1.24 2.32 -2.44 l0 -7.56 c-1.72 1.6 -3.84 3 -5.12 5.12 c-1.6 -2.2 -3.4 -3.52 -5.12 -5.12 l0 7.56 c0 1.2 1.2 2.24 2.32 2.44 l-9 0 c1.04 -0.2 2.32 -1.24 2.32 -2.4 l0 -14.48 c0 -1.12 -1.28 -2.16 -2.32 -2.36 l9 0 c-1.52 0.28 -2.84 1.12 -1.92 2.6 c0.96 1.64 3.12 3.4 4.72 5.12 c1.56 -1.64 3.4 -3.04 4.76 -4.96 c0.84 -1.56 -0.52 -2.52 -1.96 -2.76 z M77.703 24.72 l-5.04 0 l0 4.04 c3.36 -1.88 5.84 -2.2 6.52 2.36 c-1.28 -0.68 -4.16 0.88 -6.52 2.2 l0 2.68 l5.04 0 c0.96 0 3.04 -0.36 4.16 -2.4 l-0.96 6.4 l-14.92 0 c1.04 -0.2 2.32 -1.24 2.32 -2.4 l0 -14.48 c0 -1.12 -1.28 -2.2 -2.32 -2.4 l13.6 0 c0.64 0 0.96 -0.04 1.28 -0.32 l1 6.72 c-1.12 -2.04 -3.2 -2.4 -4.16 -2.4 z M107.22500000000001 20.76 l9 0 c-1.08 0.2 -2.32 1.24 -2.32 2.36 l0 14.48 c0 1.16 1.24 2.2 2.32 2.4 l-9 0 c1.08 -0.2 2.32 -1.24 2.32 -2.44 l0 -7.56 c-1.72 1.6 -3.84 3 -5.12 5.12 c-1.6 -2.2 -3.4 -3.52 -5.12 -5.12 l0 7.56 c0 1.2 1.2 2.24 2.32 2.44 l-9 0 c1.04 -0.2 2.32 -1.24 2.32 -2.4 l0 -14.48 c0 -1.12 -1.28 -2.16 -2.32 -2.36 l9 0 c-1.52 0.28 -2.84 1.12 -1.92 2.6 c0.96 1.64 3.12 3.4 4.72 5.12 c1.56 -1.64 3.4 -3.04 4.76 -4.96 c0.84 -1.56 -0.52 -2.52 -1.96 -2.76 z M127.80600000000001 23.68 l-1.8 8 c1.4 0.36 2.6 0.76 3.6 0.88 z M125.08600000000001 35.72 l-0.4 1.84 c-0.28 1.2 0.36 2.24 1.4 2.44 l-8.28 0 c1.12 -0.2 2.28 -1.4 2.48 -2.4 l0.52 -2.28 c-0.64 0.04 -1.2 0.24 -1.56 0.6 c-0.4 -2.28 -0.12 -4.48 2.52 -4.8 l1.8 -8 c0.28 -1.12 0.12 -2.16 -0.88 -2.36 l10.36 0 c-1 0.2 -1.2 1.24 -0.96 2.36 c0.96 4.84 1.92 9.68 2.88 14.48 c0.2 1 1.36 2.2 2.44 2.4 l-8.28 0 c1.04 -0.2 1.68 -1.24 1.44 -2.44 l-0.16 -0.96 c-1.2 0.04 -3.24 -0.48 -5.32 -0.88 z M148.387 20.76 c-1.92 0.36 -2.84 1.92 -1.84 3.48 c1.44 2.32 4.56 3.56 7.24 5.56 l0 -6.68 c0 -1.12 -1.28 -2.16 -2.32 -2.36 l9 0 c-1.12 0.2 -2.32 1.24 -2.32 2.4 l0 14.4 c0 1.2 1.2 2.24 2.32 2.44 l-9 0 c2.2 -0.4 2.84 -2.68 1.92 -4.48 c-1.32 -2.6 -4.56 -3.88 -7.32 -5.88 l0 7.92 c0 1.2 1.2 2.24 2.32 2.44 l-9 0 c1.04 -0.2 2.32 -1.24 2.32 -2.4 l0 -14.48 c0 -1.12 -1.28 -2.16 -2.32 -2.36 l9 0 z M171.448 20.76 c-1.12 0.2 -2.32 1.24 -2.32 2.4 l0 14.4 c0 1.2 1.2 2.24 2.32 2.44 l-9 0 c1.04 -0.2 2.32 -1.24 2.32 -2.4 l0 -14.48 c0 -1.12 -1.28 -2.16 -2.32 -2.36 l9 0 z M183.429 23.68 l-1.8 8 c1.4 0.36 2.6 0.76 3.6 0.88 z M180.709 35.72 l-0.4 1.84 c-0.28 1.2 0.36 2.24 1.4 2.44 l-8.28 0 c1.12 -0.2 2.28 -1.4 2.48 -2.4 l0.52 -2.28 c-0.64 0.04 -1.2 0.24 -1.56 0.6 c-0.4 -2.28 -0.12 -4.48 2.52 -4.8 l1.8 -8 c0.28 -1.12 0.12 -2.16 -0.88 -2.36 l10.36 0 c-1 0.2 -1.2 1.24 -0.96 2.36 c0.96 4.84 1.92 9.68 2.88 14.48 c0.2 1 1.36 2.2 2.44 2.4 l-8.28 0 c1.04 -0.2 1.68 -1.24 1.44 -2.44 l-0.16 -0.96 c-1.2 0.04 -3.24 -0.48 -5.32 -0.88 z"></path></g><g id="SvgjsG1441" featureKey="sloganFeature-0" transform="matrix(1.7392570140635897,0,0,1.7392570140635897,99.0000002073356,204.30371741770915)" fill="#0d7377"><path d="M3.32 14.36 l-2.16 0 l0 5.64 l-1.16 0 l0 -15 l3.62 0 c1.32 0 2.3566 0.40334 3.11 1.21 s1.13 1.9767 1.13 3.51 c0 0.68 -0.11 1.3033 -0.33 1.87 s-0.53 1.0567 -0.93 1.47 s-0.87666 0.73334 -1.43 0.96 s-1.17 0.34 -1.85 0.34 z M3.22 6.02 l-2.06 0.000019531 l0 7.24 l1.86 0 c0.68 0 1.2533 -0.09666 1.72 -0.29 s0.84332 -0.45334 1.13 -0.78 s0.49332 -0.70666 0.61998 -1.14 s0.19 -0.89 0.19 -1.37 c0 -0.49334 -0.04666 -0.96334 -0.14 -1.41 s-0.26668 -0.83666 -0.52002 -1.17 s-0.60668 -0.59668 -1.06 -0.79002 s-1.0333 -0.29 -1.74 -0.29 z M11.338500000000002 20 l0 -15 l1.08 0 l0 13.92 l5.1 0 l0 1.08 l-6.18 0 z M28.617 20 l-1.1 -4.42 l-4.88 0 l-1.1 4.42 l-1 0 l4.14 -15 l0.86 0 l4.12 15 l-1.04 0 z M25.137 5.9399999999999995 l-2.26 8.68 l4.38 0 z M35.6755 13.14 l0 6.86 l-1.08 0 l0 -6.86 l-3.62 -8.14 l1.24 0 l2.9 6.94 l2.94 -6.94 l1.24 0 z M48.2525 20 l0 -15 l1.28 0 l0 15 l-1.28 0 z M57.551 6.1 l0 13.9 l-1.16 0 l0 -13.9 l-3.26 0 l0 -1.1 l7.68 0 l0 1.1 l-3.26 0 z M65.56949999999999 16.66 l-1.18 0 l-0.14 -11.66 l1.46 0 z M64.2495 20 l0 -1.18 l1.46 0 l0 1.18 l-1.46 0 z"></path></g>
			</g>
		</svg>
	